<svg id="visual" viewBox="0 0 900 600" width="900" height="600" xmlns="http://www.w3.org/2000/svg" xmlns:xlink="http://www.w3.org/1999/xlink" version="1.1"><path d="M0 63L16.7 58.3C33.3 53.7 66.7 44.3 100 53.3C133.3 62.3 166.7 89.7 200 92.8C233.3 96 266.7 75 300 65.7C333.3 56.3 366.7 58.7 400 65.5C433.3 72.3 466.7 83.7 500 93.8C533.3 104 566.7 113 600 113.5C633.3 114 666.7 106 700 97.3C733.3 88.7 766.7 79.3 800 85.5C833.3 91.7 866.7 113.3 883.3 124.2L900 135L900 0L883.3 0C866.7 0 833.3 0 800 0C766.7 0 733.3 0 700 0C666.7 0 633.3 0 600 0C566.7 0 533.3 0 500 0C466.7 0 433.3 0 400 0C366.7 0 333.3 0 300 0C266.7 0 233.3 0 200 0C166.7 0 133.3 0 100 0C66.7 0 33.3 0 16.7 0L0 0Z" fill="#a6e3e9" stroke-linecap="round" stroke-linejoin="miter"></path></svg>